Coordinates
version=1
nRows=30
nColumns=34
inDegrees=no

Units are S.I. units (second, meters, Newtons, ...)
If the header above contains a line with 'inDegrees', this indicates whether rotational values are in degrees (yes) or radians (no).

endheader
time	pelvis_tilt	pelvis_list	pelvis_rotation	pelvis_tx	pelvis_ty	pelvis_tz	hip_flexion_r	hip_adduction_r	hip_rotation_r	knee_angle_r	ankle_angle_r	subtalar_angle_r	mtp_angle_r	hip_flexion_l	hip_adduction_l	hip_rotation_l	knee_angle_l	ankle_angle_l	subtalar_angle_l	mtp_angle_l	lumbar_extension	lumbar_bending	lumbar_rotation	arm_flex_r	arm_add_r	arm_rot_r	elbow_flex_r	pro_sup_r	arm_flex_l	arm_add_l	arm_rot_l	elbow_flex_l	pro_sup_l
0.88	0.110109	0.099498	-0.111131	0.945614	0.931505	-0.227539	0.409518	-0.198652	-0.00737476	1.19038	0.0624501	-0.0834007	-0.00407212	-0.0211188	0.177261	-0.08344	0.238724	0.225218	-0.0736444	-0.00410482	-0.392079	-0.0903526	0.0336658	0.0303225	-0.260921	0.0283003	0.803986	2.19924	0.0987792	-0.243735	-0.0973491	0.796038	2.11641
0.89	0.11231	0.096069	-0.107269	0.956856	0.932152	-0.227656	0.42023	-0.18939	-0.0127449	1.15379	0.0824415	-0.0608801	-0.00407149	-0.0433988	0.175787	-0.0794027	0.228949	0.231186	-0.0658424	-0.00410419	-0.396362	-0.0854601	0.0264002	0.0168426	-0.262066	0.0192341	0.795398	2.1974	0.109777	-0.248268	-0.0927613	0.814447	2.12013
0.9	0.114738	0.0924888	-0.103001	0.968078	0.932662	-0.227727	0.427758	-0.180368	-0.0194312	1.11125	0.101476	-0.0382866	-0.00407087	-0.0652323	0.173678	-0.0761469	0.220577	0.238083	-0.0567432	-0.00410357	-0.400982	-0.0804601	0.0188814	0.00349837	-0.263051	0.0092617	0.788141	2.195	0.120627	-0.253088	-0.0880637	0.833504	2.12395
0.91	0.117545	0.0887056	-0.0986069	0.97929	0.933036	-0.227733	0.431947	-0.171358	-0.0270518	1.06286	0.119634	-0.0158233	-0.00407024	-0.0868596	0.170844	-0.0742659	0.213501	0.246092	-0.0458383	-0.00410295	-0.406043	-0.0753716	0.0114263	-0.0097336	-0.263866	-0.00161637	0.782217	2.19228	0.131352	-0.258183	-0.0830293	0.853023	2.12768
0.92	0.120872	0.0846638	-0.0943392	0.99051	0.933284	-0.227656	0.432657	-0.162113	-0.0352123	1.0087	0.136886	0.00652411	-0.00406962	-0.108596	0.167222	-0.0743218	0.207474	0.255256	-0.0326223	-0.00410233	-0.411626	-0.0702042	0.00433482	-0.0228856	-0.264514	-0.0133427	0.77759	2.18951	0.141949	-0.263527	-0.0774595	0.872808	2.13115
0.93	0.124827	0.080309	-0.0904014	1.00176	0.933409	-0.227482	0.429796	-0.152395	-0.0434935	0.948956	0.153131	0.028984	-0.004069	-0.130777	0.162769	-0.0767998	0.202161	0.265478	-0.016641	-0.0041017	-0.417768	-0.0649572	-0.00214043	-0.0359835	-0.265006	-0.0257921	0.774183	2.18689	0.152386	-0.269082	-0.0712136	0.892672	2.13425
0.94	0.129457	0.0755989	-0.0869356	1.01306	0.933415	-0.2272	0.423367	-0.142002	-0.0514417	0.8839	0.168221	0.051925	-0.00406837	-0.153694	0.157477	-0.0820665	0.197194	0.27655	0.0024571	-0.00410108	-0.424441	-0.0596242	-0.00781959	-0.0490342	-0.265356	-0.03877	0.771875	2.18461	0.162595	-0.274804	-0.0642333	0.912451	2.13693
0.95	0.134737	0.0705169	-0.0840142	1.02444	0.933299	-0.226809	0.413494	-0.130801	-0.0585706	0.813957	0.181983	0.0757216	-0.00406775	-0.177543	0.151371	-0.0903306	0.192235	0.288188	0.0248699	-0.00410046	-0.431542	-0.0542029	-0.0126131	-0.0620185	-0.265579	-0.0520223	0.7705	2.1828	0.172472	-0.280642	-0.0565539	0.932012	2.13918
0.96	0.140561	0.0650861	-0.0816388	1.03592	0.933054	-0.22631	0.400448	-0.118756	-0.0643808	0.739749	0.194251	0.100583	-0.00406713	-0.202374	0.144526	-0.101613	0.187029	0.300071	0.0505988	-0.00409984	-0.438889	-0.0487055	-0.0165298	-0.0748887	-0.265686	-0.0652568	0.76986	2.1815	0.181891	-0.286543	-0.0483023	0.951251	2.14104
0.97	0.146749	0.0593777	-0.0797439	1.04753	0.932668	-0.225711	0.384654	-0.105948	-0.068398	0.662143	0.204884	0.12639	-0.0040665	-0.228079	0.137066	-0.115732	0.18145	0.311886	0.0794219	-0.00409922	-0.446237	-0.0431673	-0.0196731	-0.0875716	-0.265681	-0.0781733	0.769732	2.18065	0.190712	-0.29245	-0.0396806	0.970089	2.14262
0.98	0.15307	0.0535094	-0.0782082	1.05929	0.932128	-0.225022	0.366667	-0.0925755	-0.0702292	0.582282	0.213802	0.152579	-0.00406588	-0.254388	0.129156	-0.13231	0.175526	0.32336	0.110895	-0.0040986	-0.453302	-0.0376457	-0.022225	-0.099974	-0.265567	-0.0904961	0.769889	2.18011	0.198805	-0.298307	-0.0309399	0.988455	2.14402
0.99	0.159271	0.0476306	-0.0768701	1.0712	0.93142	-0.224257	0.347151	-0.0789314	-0.0696295	0.501599	0.221008	0.178125	-0.00406526	-0.280899	0.12098	-0.150802	0.16944	0.334277	0.144368	-0.00409798	-0.459792	-0.0322129	-0.0244206	-0.111988	-0.26534	-0.102002	0.770115	2.17968	0.206058	-0.304053	-0.0223501	1.00628	2.14535
1	0.165109	0.0418945	-0.0755468	1.08328	0.930539	-0.223433	0.326836	-0.0653675	-0.0665697	0.421804	0.226603	0.201635	-0.00406464	-0.307119	0.112715	-0.170533	0.163522	0.344478	0.179012	-0.00409736	-0.465441	-0.0269386	-0.0265165	-0.123498	-0.265	-0.112541	0.770219	2.17914	0.212388	-0.30962	-0.0141719	1.0235	2.14671
1.01	0.170376	0.0364321	-0.0740597	1.09552	0.929488	-0.222566	0.306462	-0.0522371	-0.061293	0.344823	0.230785	0.221549	-0.00406401	-0.33252	0.104492	-0.19076	0.158213	0.35385	0.213875	-0.00409674	-0.470043	-0.0218619	-0.0287577	-0.134383	-0.264551	-0.122039	0.770045	2.17827	0.21774	-0.314933	-0.0066356	1.04003	2.14814
1.02	0.174913	0.0313223	-0.0722506	1.10793	0.92828	-0.221673	0.286721	-0.0398293	-0.0543421	0.272702	0.233825	0.236426	-0.00406339	-0.356604	0.0963507	-0.210743	0.154024	0.362308	0.247949	-0.00409612	-0.473484	-0.0169607	-0.0313426	-0.144525	-0.264007	-0.130503	0.769481	2.17694	0.222084	-0.31991	7.15107e-05	1.05579	2.14968
1.03	0.178641	0.0265539	-0.0699954	1.1205	0.926941	-0.220769	0.2682	-0.0283097	-0.0465365	0.207457	0.236017	0.245224	-0.00406277	-0.37896	0.0882165	-0.229818	0.151478	0.369782	0.280257	-0.0040955	-0.475754	-0.0121312	-0.0343967	-0.153814	-0.26339	-0.138002	0.768461	2.17507	0.2254	-0.324461	0.00580995	1.07071	2.15134
1.04	0.181568	0.0220043	-0.0672137	1.13323	0.925506	-0.219869	0.25133	-0.0176764	-0.0388851	0.15089	0.237609	0.247518	-0.00406215	-0.39931	0.0798849	-0.247453	0.151054	0.376197	0.309935	-0.00409488	-0.476943	-0.00717689	-0.0379555	-0.162157	-0.262728	-0.144658	0.766961	2.17267	0.227669	-0.328492	0.0104877	1.08473	2.15309
1.05	0.183789	0.0174423	-0.0638721	1.1461	0.924018	-0.218982	0.236343	-0.00774667	-0.0324321	0.104392	0.238724	0.243582	-0.00406153	-0.417544	0.0710369	-0.263289	0.153135	0.381454	0.336297	-0.00409425	-0.477233	-0.00181781	-0.04196	-0.16949	-0.262053	-0.150627	0.764988	2.16981	0.228865	-0.331912	0.0140577	1.09781	2.15493
1.06	0.185476	0.0125505	-0.059984	1.15913	0.922518	-0.218112	0.223252	0.00182397	-0.0280559	0.0687701	0.239291	0.234295	-0.0040609	-0.433723	0.0612756	-0.277142	0.157965	0.385413	0.358887	-0.00409363	-0.476871	0.00428296	-0.0462621	-0.175789	-0.261389	-0.156082	0.762576	2.16659	0.228947	-0.334642	0.0165161	1.10993	2.1568
1.07	0.186848	0.00696828	-0.0556065	1.1723	0.921042	-0.217259	0.211856	0.0114904	-0.026275	0.0441265	0.238997	0.220918	-0.00406028	-0.448062	0.0501815	-0.288999	0.165642	0.387877	0.377494	-0.00409301	-0.476136	0.011476	-0.0506397	-0.181075	-0.260753	-0.161199	0.759767	2.16314	0.227868	-0.336613	0.0179014	1.12109	2.15869
1.08	0.188146	0.000346449	-0.050837	1.18564	0.919617	-0.216413	0.201789	0.0217425	-0.0271302	0.0298497	0.23731	0.204815	-0.00405966	-0.46087	0.0373747	-0.298969	0.176141	0.388566	0.392132	-0.00409239	-0.475303	0.0200728	-0.0548175	-0.185408	-0.260147	-0.166142	0.756603	2.15957	0.225582	-0.337781	0.0182949	1.13127	2.16055
1.09	0.189585	-0.00760692	-0.0458111	1.19914	0.918312	-0.215548	0.192613	0.033014	-0.0302071	0.0247399	0.233574	0.187249	-0.00405904	-0.472453	0.0225808	-0.307213	0.189369	0.387099	0.402943	-0.00409177	-0.474596	0.0302848	-0.0584918	-0.188876	-0.259558	-0.171047	0.753105	2.15601	0.222069	-0.338123	0.0178214	1.14046	2.16237
1.1	0.191302	-0.0170484	-0.0407029	1.21282	0.917154	-0.214647	0.183957	0.0455979	-0.0348039	0.0272762	0.227197	0.169302	-0.00405841	-0.483001	0.00568591	-0.313844	0.205245	0.382973	0.410057	-0.00409116	-0.474153	0.0421755	-0.0613534	-0.191572	-0.258954	-0.176011	0.749264	2.15259	0.217356	-0.337643	0.0166484	1.14857	2.16412
1.11	0.193308	-0.027979	-0.0357129	1.22666	0.916155	-0.213687	0.17563	0.0595902	-0.0401626	0.0358749	0.217851	0.151866	-0.00405779	-0.492463	-0.0132491	-0.31887	0.223809	0.375565	0.413491	-0.00409054	-0.47399	0.0556384	-0.0631179	-0.193562	-0.258291	-0.181075	0.745039	2.1495	0.211529	-0.336369	0.0149765	1.1555	2.16582
1.12	0.195477	-0.0402606	-0.0310413	1.24064	0.915314	-0.212651	0.16769	0.0748893	-0.045678	0.049084	0.205631	0.13564	-0.00405717	-0.500465	-0.0340409	-0.322231	0.24533	0.364175	0.413167	-0.00408992	-0.474	0.0704274	-0.0635588	-0.194873	-0.257519	-0.186215	0.740359	2.14691	0.204739	-0.334348	0.0130187	1.1611	2.16748
1.13	0.19753	-0.0536444	-0.0268638	1.25473	0.914622	-0.211527	0.16047	0.0912194	-0.0510281	0.0657335	0.191135	0.12114	-0.00405655	-0.506258	-0.0564405	-0.323843	0.27037	0.348086	0.408947	-0.0040893	-0.473949	0.0861981	-0.0625333	-0.195474	-0.256595	-0.191342	0.735154	2.14501	0.197193	-0.33164	0.01098	1.16519	2.16913
1.14	0.199049	-0.0677968	-0.0233126	1.26886	0.914055	-0.210308	0.154558	0.108161	-0.0562025	0.0850211	0.175448	0.10872	-0.00405593	-0.508726	-0.0801644	-0.32361	0.299784	0.326607	0.400628	-0.00408868	-0.473487	0.102544	-0.0600016	-0.195288	-0.255493	-0.196302	0.729377	2.14396	0.189134	-0.328312	0.00903993	1.1676	2.17082
1.15	0.199506	-0.0823247	-0.0204653	1.28298	0.913588	-0.208997	0.150724	0.125194	-0.0614288	0.106499	0.160008	0.0985853	-0.00405531	-0.506464	-0.104901	-0.321402	0.334622	0.299125	0.387898	-0.00408806	-0.472171	0.11903	-0.0560347	-0.194197	-0.254209	-0.200896	0.723039	2.14385	0.18083	-0.324433	0.00734268	1.16817	2.1726
1.16	0.198318	-0.0968016	-0.0183418	1.29699	0.913183	-0.207607	0.149787	0.14175	-0.0670333	0.129972	0.146387	0.0907957	-0.00405469	-0.497929	-0.130302	-0.317044	0.375968	0.265156	0.37032	-0.00408744	-0.469514	0.135217	-0.0508089	-0.19207	-0.252768	-0.204904	0.716232	2.14475	0.172543	-0.320077	0.00599353	1.1668	2.1745
1.17	0.194935	-0.110794	-0.0169126	1.31084	0.912805	-0.206157	0.152448	0.157275	-0.0732868	0.155325	0.136031	0.0852645	-0.00405406	-0.481663	-0.15597	-0.310329	0.424728	0.224414	0.347367	-0.00408682	-0.465053	0.150697	-0.0445842	-0.188787	-0.251226	-0.208103	0.709144	2.14661	0.164512	-0.315315	0.00506168	1.16343	2.1765
